<?xml version="1.0" standalone="no"?>
<!DOCTYPE svg PUBLIC "-//W3C//DTD SVG 20010904//EN"
 "http://www.w3.org/TR/2001/REC-SVG-20010904/DTD/svg10.dtd">
<svg version="1.0" xmlns="http://www.w3.org/2000/svg"
 width="339.000000pt" height="339.000000pt" viewBox="0 0 339.000000 339.000000"
 preserveAspectRatio="xMidYMid meet">
<metadata>
Created by potrace 1.14, written by Peter Selinger 2001-2017
</metadata>
<g transform="translate(0.000000,339.000000) scale(0.100000,-0.100000)"
fill="#000000" stroke="none">
<path d="M1756 3339 c-18 -14 -64 -120 -181 -417 -86 -218 -161 -406 -166
-417 -8 -19 -254 -641 -346 -877 -25 -65 -50 -115 -54 -112 -5 3 -6 -3 -2 -12
4 -12 3 -15 -5 -10 -8 4 -10 2 -6 -7 3 -8 -20 -79 -52 -158 -31 -79 -89 -227
-129 -329 -156 -396 -227 -576 -240 -605 -46 -108 -98 -250 -98 -271 1 -52 63
-82 105 -51 9 8 49 94 88 193 38 98 74 188 79 199 11 25 155 388 157 395 0 3
4 14 9 25 5 11 43 107 85 213 42 106 80 189 84 185 4 -4 4 0 1 9 -3 8 1 22 9
31 8 8 13 17 10 20 -3 2 2 20 10 38 7 19 44 112 81 207 59 150 69 171 80 155
7 -10 72 -124 144 -253 72 -129 136 -242 141 -250 6 -8 13 -22 17 -30 4 -8 19
-36 34 -61 15 -26 42 -73 60 -105 56 -103 70 -127 115 -205 24 -42 44 -81 44
-86 0 -6 6 -16 14 -22 8 -7 13 -21 11 -32 -2 -11 0 -17 5 -14 5 3 14 -4 20
-15 6 -11 7 -20 3 -20 -4 0 0 -5 10 -11 9 -5 17 -15 17 -20 0 -6 7 -18 16 -26
18 -18 49 -7 49 18 1 15 -56 126 -89 173 -13 20 -15 27 -5 22 7 -4 5 0 -5 8
-11 9 -16 16 -10 16 5 0 4 4 -2 8 -12 8 -354 610 -354 623 0 5 -4 9 -10 9 -5
0 -10 4 -10 10 0 5 -44 88 -99 183 l-98 174 87 219 c48 120 174 437 280 704
125 313 194 498 194 522 1 63 -52 94 -98 57z"/>
<path d="M1954 2879 c-12 -4 -27 -21 -34 -39 -12 -29 -5 -50 154 -453 91 -232
166 -434 166 -449 0 -15 -4 -37 -9 -51 -5 -13 -12 -41 -15 -61 -4 -21 -8 -41
-11 -45 -2 -4 -6 -18 -9 -32 -3 -13 -16 -69 -31 -124 -14 -55 -28 -110 -30
-122 -3 -12 -10 -34 -15 -48 -5 -14 -7 -25 -5 -25 2 0 1 -10 -4 -23 -5 -13
-12 -41 -15 -61 -4 -21 -8 -42 -11 -46 -4 -7 -15 -58 -20 -97 -4 -31 -14 -44
-28 -37 -9 5 -9 4 -1 -5 9 -10 8 -25 -1 -62 -7 -27 -14 -52 -14 -54 -1 -3 -1
-6 -2 -7 -4 -13 -10 -45 -11 -55 -1 -7 -4 -13 -7 -13 -3 0 -6 -10 -7 -22 0
-13 -4 -39 -9 -58 -15 -64 -12 -85 12 -88 29 -4 44 28 54 113 1 6 5 20 10 33
5 12 11 33 13 45 3 12 32 135 66 272 34 138 63 258 65 268 2 10 7 28 11 40 4
12 8 29 9 37 1 8 12 52 23 97 21 78 29 114 32 138 1 14 24 -42 165 -400 70
-176 166 -421 215 -545 49 -124 128 -324 175 -445 129 -329 137 -348 159 -373
22 -25 63 -29 90 -9 33 24 22 75 -68 302 -48 121 -133 335 -188 475 -55 140
-106 269 -113 285 -7 17 -46 113 -86 215 -136 348 -360 915 -368 935 -5 11
-37 92 -71 180 -34 88 -68 174 -75 190 -7 17 -27 66 -45 110 -43 108 -67 133
-116 114z"/>
<path d="M2110 1616 c0 -2 7 -7 16 -10 8 -3 12 -2 9 4 -6 10 -25 14 -25 6z"/>
<path d="M2096 1597 c3 -8 11 -14 19 -14 20 0 19 4 -5 17 -15 8 -18 8 -14 -3z"/>
<path d="M2074 1565 c3 -23 12 -26 13 -5 1 11 -2 20 -7 20 -4 0 -7 -7 -6 -15z"/>
<path d="M2090 1520 c0 -5 -5 -9 -11 -7 -6 1 -14 -5 -16 -13 -4 -12 -3 -12 5
-2 5 8 13 13 18 12 5 -1 10 3 12 9 2 6 1 11 -2 11 -3 0 -6 -4 -6 -10z"/>
<path d="M2090 1481 c0 -7 -4 -10 -8 -7 -4 2 -9 -4 -9 -15 -1 -10 3 -19 9 -19
6 0 8 3 5 7 -4 3 -2 12 5 20 6 7 8 16 4 20 -3 3 -6 1 -6 -6z"/>
<path d="M2026 1428 c3 -4 12 -8 20 -8 9 0 12 -5 8 -12 -4 -7 -3 -8 4 -4 16
10 4 32 -18 32 -10 0 -16 -4 -14 -8z"/>
<path d="M2036 1382 c-2 -4 4 -8 14 -8 10 0 16 4 14 8 -3 4 -9 8 -14 8 -5 0
-11 -4 -14 -8z"/>
<path d="M2023 1310 c-11 -16 -10 -18 4 -13 10 4 14 2 10 -4 -3 -5 0 -10 8
-10 9 0 11 4 6 11 -4 6 -10 17 -12 24 -3 8 -8 6 -16 -8z"/>
<path d="M1115 1280 c-3 -6 1 -7 9 -4 18 7 21 14 7 14 -6 0 -13 -4 -16 -10z"/>
<path d="M1146 1275 c-11 -8 -15 -15 -9 -15 6 0 16 7 23 15 16 19 11 19 -14 0z"/>
<path d="M1999 1263 c-13 -16 -12 -17 4 -4 9 7 17 15 17 17 0 8 -8 3 -21 -13z"/>
<path d="M1175 1250 c6 -10 4 -12 -11 -6 -15 6 -17 5 -6 -5 9 -9 15 -10 23 -2
8 8 7 13 -2 18 -8 6 -10 4 -4 -5z"/>
<path d="M2030 1249 c0 -5 5 -7 10 -4 6 3 10 8 10 11 0 2 -4 4 -10 4 -5 0 -10
-5 -10 -11z"/>
<path d="M2007 1236 c-3 -8 0 -17 7 -19 10 -4 12 1 9 14 -6 23 -9 24 -16 5z"/>
<path d="M1974 1207 c-4 -6 -4 -9 1 -5 4 4 14 3 22 -4 7 -6 15 -9 18 -7 2 3
-4 10 -15 17 -15 9 -21 9 -26 -1z"/>
<path d="M1176 1191 c-4 -5 3 -7 14 -4 23 6 26 13 6 13 -8 0 -17 -4 -20 -9z"/>
<path d="M1980 1166 c0 -2 7 -7 16 -10 8 -3 12 -2 9 4 -6 10 -25 14 -25 6z"/>
<path d="M1213 1126 c-3 -5 -1 -6 5 -2 6 3 12 -1 14 -9 2 -13 5 -13 14 3 10
15 8 18 -8 18 -11 0 -22 -5 -25 -10z"/>
<path d="M2000 1130 c-12 -7 -12 -11 -2 -20 6 -5 10 -7 7 -4 -3 4 0 13 6 21
13 15 10 16 -11 3z"/>
<path d="M1955 1090 c3 -5 8 -10 11 -10 2 0 4 5 4 10 0 6 -5 10 -11 10 -5 0
-7 -4 -4 -10z"/>
<path d="M1242 1066 c-9 -19 -8 -24 3 -22 8 1 18 6 22 11 4 4 2 5 -6 0 -10 -6
-12 -2 -6 14 9 28 1 27 -13 -3z"/>
<path d="M1960 1062 c-18 -14 -19 -19 -7 -19 9 0 13 5 10 10 -4 6 1 8 11 4 9
-4 15 -3 11 2 -3 5 1 12 7 14 8 4 9 6 2 6 -7 1 -22 -7 -34 -17z"/>
<path d="M1270 1030 c0 -5 7 -7 15 -4 8 4 15 8 15 10 0 2 -7 4 -15 4 -8 0 -15
-4 -15 -10z"/>
<path d="M1956 1017 c3 -10 9 -15 12 -12 3 3 0 11 -7 18 -10 9 -11 8 -5 -6z"/>
<path d="M1942 994 c10 -10 20 -16 22 -13 3 3 -5 11 -17 18 -21 13 -21 12 -5
-5z"/>
<path d="M1290 992 c0 -5 7 -9 15 -9 8 0 12 4 9 9 -3 4 -9 8 -15 8 -5 0 -9 -4
-9 -8z"/>
<path d="M1320 960 c-7 -14 -7 -20 0 -20 5 0 10 7 10 16 0 9 5 12 12 8 7 -4 8
-3 4 4 -10 16 -14 15 -26 -8z"/>
<path d="M1936 967 c3 -10 9 -15 12 -12 3 3 0 11 -7 18 -10 9 -11 8 -5 -6z"/>
<path d="M1336 931 c-3 -5 1 -14 9 -21 10 -9 15 -9 15 -1 0 6 -5 11 -11 11 -5
0 -7 5 -4 10 3 6 4 10 1 10 -3 0 -7 -4 -10 -9z"/>
<path d="M1894 908 c-5 -7 44 -3 52 5 3 3 -7 4 -21 3 -15 0 -29 -4 -31 -8z"/>
<path d="M1935 889 c-6 -8 -4 -10 5 -4 10 6 12 4 6 -11 -6 -15 -5 -17 5 -6 9
9 10 15 2 23 -8 8 -13 7 -18 -2z"/>
<path d="M1371 883 c-2 -20 16 -24 30 -5 13 15 12 16 -3 4 -13 -10 -17 -10
-21 0 -4 9 -6 9 -6 1z"/>
<path d="M1911 861 c-8 -5 -16 -17 -17 -25 -1 -9 2 -14 7 -10 5 3 6 10 3 16
-5 7 -2 9 8 6 9 -4 15 0 15 8 0 8 -1 14 -1 14 -1 0 -7 -4 -15 -9z"/>
<path d="M1355 850 c3 -5 8 -10 11 -10 2 0 4 5 4 10 0 6 -5 10 -11 10 -5 0 -7
-4 -4 -10z"/>
<path d="M1394 829 c-4 -7 -3 -9 4 -5 5 3 13 0 15 -6 4 -9 6 -10 6 -1 1 17
-16 25 -25 12z"/>
<path d="M1401 786 c-9 -10 -8 -15 3 -19 9 -4 18 -1 22 5 5 7 2 8 -6 3 -10 -6
-12 -4 -7 8 8 21 3 22 -12 3z"/>
<path d="M1908 793 c7 -3 16 -2 19 1 4 3 -2 6 -13 5 -11 0 -14 -3 -6 -6z"/>
<path d="M1455 761 c-3 -5 -2 -12 3 -15 5 -3 9 1 9 9 0 17 -3 19 -12 6z"/>
<path d="M1428 733 c7 -3 16 -2 19 1 4 3 -2 6 -13 5 -11 0 -14 -3 -6 -6z"/>
<path d="M1426 711 c-4 -5 3 -7 14 -4 23 6 26 13 6 13 -8 0 -17 -4 -20 -9z"/>
<path d="M1450 689 c0 -5 5 -7 10 -4 6 3 10 8 10 11 0 2 -4 4 -10 4 -5 0 -10
-5 -10 -11z"/>
<path d="M1495 670 c-3 -5 -1 -10 4 -10 6 0 11 5 11 10 0 6 -2 10 -4 10 -3 0
-8 -4 -11 -10z"/>
<path d="M1473 645 c0 -8 4 -12 9 -9 5 3 6 10 3 15 -9 13 -12 11 -12 -6z"/>
<path d="M1496 621 c-4 -5 3 -7 14 -4 23 6 26 13 6 13 -8 0 -17 -4 -20 -9z"/>
<path d="M1855 621 c-3 -5 0 -13 6 -17 7 -4 9 -3 5 4 -3 6 2 13 11 15 16 4 16
5 1 6 -9 0 -19 -3 -23 -8z"/>
<path d="M1494 592 c4 -3 14 -7 22 -8 9 -1 13 0 10 4 -4 3 -14 7 -22 8 -9 1
-13 0 -10 -4z"/>
<path d="M1535 571 c-3 -6 5 -15 17 -21 21 -10 21 -10 6 3 -10 8 -15 17 -11
20 3 4 4 7 0 7 -3 0 -8 -4 -12 -9z"/>
<path d="M1816 568 c3 -4 11 -5 19 -1 21 7 19 12 -4 10 -11 0 -18 -5 -15 -9z"/>
<path d="M1850 560 c-11 -7 -11 -10 -2 -10 8 0 10 -5 6 -12 -4 -7 -3 -9 1 -5
7 6 17 37 12 37 -1 0 -9 -5 -17 -10z"/>
<path d="M1576 524 c-8 -20 -8 -24 2 -24 4 0 8 9 9 20 2 24 -3 26 -11 4z"/>
<path d="M1828 523 c6 -2 9 -10 6 -15 -4 -7 -2 -8 5 -4 13 9 5 26 -12 25 -9 0
-8 -2 1 -6z"/>
<path d="M1593 481 l-22 -18 27 0 c15 0 21 2 14 4 -10 4 -10 8 -1 19 16 19 8
17 -18 -5z"/>
<path d="M1555 480 c-3 -6 1 -7 9 -4 18 7 21 14 7 14 -6 0 -13 -4 -16 -10z"/>
<path d="M1815 461 c-3 -5 0 -13 6 -17 7 -4 9 -3 5 4 -3 6 2 13 11 15 16 4 16
5 1 6 -9 0 -19 -3 -23 -8z"/>
<path d="M1617 436 c-4 -10 -3 -15 3 -11 6 3 10 1 10 -6 0 -7 3 -10 6 -6 3 3
2 13 -4 22 -8 16 -9 16 -15 1z"/>
<path d="M1796 432 c-3 -5 1 -9 9 -9 8 0 12 4 9 9 -3 4 -7 8 -9 8 -2 0 -6 -4
-9 -8z"/>
<path d="M1615 370 c-3 -6 1 -7 9 -4 18 7 21 14 7 14 -6 0 -13 -4 -16 -10z"/>
<path d="M1670 369 c0 -5 5 -7 10 -4 6 3 10 8 10 11 0 2 -4 4 -10 4 -5 0 -10
-5 -10 -11z"/>
<path d="M1653 317 c0 -7 13 -12 29 -13 15 -1 28 3 28 9 0 6 -3 8 -6 4 -3 -3
-16 -2 -28 3 -16 6 -23 5 -23 -3z"/>
<path d="M1666 292 c-3 -5 1 -9 9 -9 8 0 12 4 9 9 -3 4 -7 8 -9 8 -2 0 -6 -4
-9 -8z"/>
<path d="M1700 246 c0 -2 7 -7 16 -10 8 -3 12 -2 9 4 -6 10 -25 14 -25 6z"/>
<path d="M1748 226 c3 -6 7 -17 8 -24 4 -27 12 -22 11 6 -1 16 -7 29 -14 29
-7 0 -9 -5 -5 -11z"/>
<path d="M1733 181 c0 -11 5 -18 9 -15 4 3 5 11 1 19 -7 21 -12 19 -10 -4z"/>
</g>
</svg>
